<svg width="249" height="153" viewBox="0 0 249 153" fill="none" xmlns="http://www.w3.org/2000/svg">
<path d="M129.204 79.15L74.255 35.0079C68.6865 30.5349 70.5794 21.2213 77.5231 19.0311L135.924 0.57173C137.162 0.0518709 138.487 -0.116885 139.792 0.0794797C141.096 0.275845 142.341 0.83166 143.424 1.7008C144.507 2.56995 145.397 3.72734 146.018 5.07693C146.64 6.42651 146.977 7.92938 147 9.46077L143.539 72.0587C143.128 79.4888 134.773 83.623 129.204 79.15Z" fill="#E9327C"/>
<path d="M112.488 89.4293L79.9713 15.9188C79.228 14.2371 78.9009 12.3508 79.0261 10.4678C79.1513 8.58485 79.7239 6.77843 80.6807 5.24779C81.6376 3.71715 82.9415 2.52172 84.4488 1.79334C85.956 1.06495 87.608 0.831925 89.2225 1.11997L149.483 11.8714C150.871 12.119 152.187 12.7437 153.325 13.6942C154.463 14.6447 155.389 15.8939 156.028 17.3389C156.667 18.784 157 20.3837 157 22.0066C157 23.6294 156.666 25.229 156.027 26.6739L128.267 89.4329C127.522 91.1098 126.391 92.5168 124.999 93.4988C123.607 94.4811 122.007 95.0004 120.377 95C118.746 94.9996 117.146 94.4797 115.755 93.497C114.363 92.514 113.232 91.1066 112.488 89.4293Z" fill="#1DACE3"/>
<path d="M147 11.452L117.374 6L81 17.7758L95.5187 51.6418L129.517 79.6144C130.267 80.2247 131.092 80.6921 131.962 81L144.876 50.8893L147 11.452Z" fill="#001A49"/>
<path d="M13.4844 123.703H13.0156C12.9219 123.438 12.7656 123.102 12.5469 122.695C12.3438 122.289 12.0625 121.891 11.7031 121.5C11.3594 121.109 10.9297 120.781 10.4141 120.516C9.89844 120.234 9.28125 120.094 8.5625 120.094C8.01562 120.094 7.52344 120.188 7.08594 120.375C6.66406 120.547 6.30469 120.789 6.00781 121.102C5.71094 121.414 5.48438 121.789 5.32812 122.227C5.17188 122.648 5.09375 123.109 5.09375 123.609C5.09375 124.422 5.33594 125.195 5.82031 125.93C6.32031 126.664 6.9375 127.398 7.67188 128.133C8.40625 128.852 9.20312 129.578 10.0625 130.312C10.9219 131.047 11.7188 131.812 12.4531 132.609C13.1875 133.406 13.7969 134.25 14.2812 135.141C14.7812 136.031 15.0312 136.984 15.0312 138C15.0312 138.75 14.8906 139.523 14.6094 140.32C14.3438 141.117 13.9062 141.836 13.2969 142.477C12.6875 143.117 11.9062 143.641 10.9531 144.047C10 144.469 8.84375 144.68 7.48438 144.68C6.73438 144.68 6.01562 144.617 5.32812 144.492C4.65625 144.367 4.03125 144.211 3.45312 144.023C2.89062 143.852 2.38281 143.664 1.92969 143.461C1.49219 143.242 1.125 143.039 0.828125 142.852L1.25 138.422H1.74219C1.89844 138.969 2.125 139.516 2.42188 140.062C2.73438 140.609 3.10938 141.109 3.54688 141.562C4 142 4.52344 142.359 5.11719 142.641C5.72656 142.906 6.42188 143.039 7.20312 143.039C7.75 143.039 8.26562 142.953 8.75 142.781C9.23438 142.594 9.64844 142.336 9.99219 142.008C10.3516 141.68 10.6328 141.281 10.8359 140.812C11.0391 140.328 11.1406 139.789 11.1406 139.195C11.1406 138.492 11 137.844 10.7188 137.25C10.4375 136.641 10.0625 136.062 9.59375 135.516C9.125 134.953 8.59375 134.414 8 133.898C7.42188 133.383 6.82031 132.859 6.19531 132.328C5.57031 131.797 4.96094 131.258 4.36719 130.711C3.78906 130.148 3.26562 129.547 2.79688 128.906C2.32812 128.266 1.95312 127.586 1.67188 126.867C1.39062 126.133 1.25 125.328 1.25 124.453C1.25 123.531 1.44531 122.703 1.83594 121.969C2.22656 121.234 2.74219 120.617 3.38281 120.117C4.02344 119.602 4.75781 119.211 5.58594 118.945C6.41406 118.664 7.27344 118.523 8.16406 118.523C8.82031 118.523 9.42969 118.57 9.99219 118.664C10.5703 118.758 11.0859 118.875 11.5391 119.016C12.0078 119.141 12.4141 119.273 12.7578 119.414C13.1016 119.539 13.3828 119.641 13.6016 119.719L13.4844 123.703ZM38.1172 131.953C37.6328 131.953 37.0312 131.953 36.3125 131.953C35.5938 131.938 34.8125 131.922 33.9688 131.906C33.125 131.891 32.25 131.883 31.3438 131.883C30.4375 131.867 29.5625 131.859 28.7188 131.859C27.9219 131.859 27.1719 131.867 26.4688 131.883C25.7812 131.898 25.1875 131.922 24.6875 131.953V134.344C24.6875 135.75 24.7031 136.977 24.7344 138.023C24.7656 139.07 24.8047 139.977 24.8516 140.742C24.9141 141.492 24.9844 142.125 25.0625 142.641C25.1406 143.156 25.2344 143.578 25.3438 143.906V144H19.9297V143.906C20.0391 143.578 20.1328 143.156 20.2109 142.641C20.3047 142.125 20.375 141.492 20.4219 140.742C20.4844 139.977 20.5312 139.07 20.5625 138.023C20.5938 136.977 20.6094 135.75 20.6094 134.344V128.438C20.6094 127.031 20.5938 125.812 20.5625 124.781C20.5312 123.734 20.4844 122.836 20.4219 122.086C20.375 121.32 20.3047 120.68 20.2109 120.164C20.1328 119.648 20.0391 119.227 19.9297 118.898V118.805H25.3438V118.898C25.2344 119.227 25.1406 119.648 25.0625 120.164C24.9844 120.68 24.9141 121.32 24.8516 122.086C24.8047 122.836 24.7656 123.734 24.7344 124.781C24.7031 125.812 24.6875 127.031 24.6875 128.438V130.031H28.1328C28.9922 130.031 29.8984 130.031 30.8516 130.031C31.8047 130.016 32.7266 130.008 33.6172 130.008C34.5078 129.992 35.3438 129.977 36.125 129.961C36.9062 129.945 37.5703 129.922 38.1172 129.891V128.438C38.1172 127.031 38.1016 125.812 38.0703 124.781C38.0391 123.734 37.9922 122.836 37.9297 122.086C37.8828 121.32 37.8203 120.68 37.7422 120.164C37.6641 119.648 37.5703 119.227 37.4609 118.898V118.805H42.875V118.898C42.7656 119.227 42.6641 119.648 42.5703 120.164C42.4922 120.68 42.4219 121.32 42.3594 122.086C42.3125 122.836 42.2734 123.734 42.2422 124.781C42.2109 125.812 42.1953 127.031 42.1953 128.438V134.344C42.1953 135.75 42.2109 136.977 42.2422 138.023C42.2734 139.07 42.3125 139.977 42.3594 140.742C42.4219 141.492 42.4922 142.125 42.5703 142.641C42.6641 143.156 42.7656 143.578 42.875 143.906V144H37.4609V143.906C37.5703 143.578 37.6641 143.156 37.7422 142.641C37.8203 142.125 37.8828 141.492 37.9297 140.742C37.9922 139.977 38.0391 139.07 38.0703 138.023C38.1016 136.977 38.1172 135.75 38.1172 134.344V131.953ZM64.3438 136.078C63.9219 136.078 63.3906 136.078 62.75 136.078C62.125 136.078 61.4375 136.078 60.6875 136.078C59.9375 136.078 59.1641 136.078 58.3672 136.078C57.5703 136.078 56.8125 136.086 56.0938 136.102C55.375 136.102 54.7188 136.109 54.125 136.125C53.5312 136.125 53.0703 136.125 52.7422 136.125L51.875 137.953C51.5 138.703 51.1797 139.359 50.9141 139.922C50.6484 140.469 50.4297 140.953 50.2578 141.375C50.0859 141.797 49.9609 142.164 49.8828 142.477C49.8047 142.773 49.7656 143.055 49.7656 143.32C49.7656 143.492 49.7734 143.625 49.7891 143.719C49.8047 143.797 49.8281 143.859 49.8594 143.906V144H45.7344V143.906C45.8438 143.797 46.0156 143.562 46.25 143.203C46.4844 142.828 46.75 142.375 47.0469 141.844C47.3594 141.312 47.6875 140.711 48.0312 140.039C48.3906 139.367 48.7422 138.672 49.0859 137.953L58.6484 118.219H60.4062L69.7812 137.953C70.1406 138.703 70.5 139.422 70.8594 140.109C71.2344 140.797 71.5781 141.414 71.8906 141.961C72.2031 142.492 72.4766 142.938 72.7109 143.297C72.9453 143.641 73.1016 143.844 73.1797 143.906V144H67.1797C67.2109 143.875 67.2266 143.766 67.2266 143.672C67.2266 143.562 67.2266 143.445 67.2266 143.32C67.2266 142.977 67.1484 142.562 66.9922 142.078C66.8516 141.594 66.6719 141.102 66.4531 140.602C66.25 140.086 66.0312 139.594 65.7969 139.125C65.5781 138.656 65.3984 138.266 65.2578 137.953L64.3438 136.078ZM53.6562 134.25H55.0859C55.7422 134.25 56.4375 134.25 57.1719 134.25C57.9219 134.234 58.6719 134.227 59.4219 134.227C60.1719 134.227 60.8984 134.227 61.6016 134.227C62.3047 134.211 62.9375 134.203 63.5 134.203L58.6484 123.844L53.6562 134.25ZM80.7969 131.766C81.1094 131.812 81.4219 131.852 81.7344 131.883C82.0625 131.898 82.375 131.906 82.6719 131.906C84.625 131.906 86.1016 131.383 87.1016 130.336C88.1172 129.289 88.625 127.719 88.625 125.625C88.625 123.906 88.2188 122.547 87.4062 121.547C86.6094 120.547 85.4297 120.047 83.8672 120.047C83.3672 120.047 82.9219 120.07 82.5312 120.117C82.1562 120.148 81.8359 120.188 81.5703 120.234C81.2734 120.297 81.0156 120.359 80.7969 120.422V131.766ZM84.3828 133.289C84.0703 133.336 83.7578 133.367 83.4453 133.383C83.1484 133.383 82.8438 133.383 82.5312 133.383C82.2812 133.383 82.0078 133.375 81.7109 133.359C81.4141 133.344 81.1094 133.32 80.7969 133.289V134.438C80.7969 135.828 80.8125 137.047 80.8438 138.094C80.875 139.125 80.9141 140.016 80.9609 140.766C81.0234 141.516 81.0938 142.148 81.1719 142.664C81.25 143.164 81.3438 143.578 81.4531 143.906V144H76.0391V143.906C76.1484 143.578 76.2422 143.156 76.3203 142.641C76.4141 142.125 76.4844 141.492 76.5312 140.742C76.5938 139.977 76.6406 139.07 76.6719 138.023C76.7031 136.977 76.7188 135.75 76.7188 134.344V128.438C76.7188 127.031 76.7031 125.812 76.6719 124.781C76.6406 123.734 76.5938 122.836 76.5312 122.086C76.4844 121.32 76.4141 120.68 76.3203 120.164C76.2422 119.648 76.1484 119.227 76.0391 118.898V118.805C76.2891 118.82 76.5547 118.836 76.8359 118.852C77.0703 118.867 77.3281 118.883 77.6094 118.898C77.9062 118.898 78.2031 118.898 78.5 118.898C79 118.898 79.7422 118.852 80.7266 118.758C81.7109 118.664 82.8672 118.617 84.1953 118.617C85.5391 118.617 86.7578 118.781 87.8516 119.109C88.9609 119.438 89.9062 119.906 90.6875 120.516C91.4844 121.125 92.0938 121.867 92.5156 122.742C92.9531 123.617 93.1719 124.594 93.1719 125.672C93.1719 126.516 93.0547 127.289 92.8203 127.992C92.5859 128.68 92.2578 129.305 91.8359 129.867C91.4141 130.414 90.9141 130.898 90.3359 131.32C89.7578 131.742 89.1172 132.109 88.4141 132.422L93.3125 139.336C93.7344 139.898 94.1562 140.438 94.5781 140.953C95.0156 141.469 95.4297 141.93 95.8203 142.336C96.2109 142.742 96.5781 143.086 96.9219 143.367C97.2656 143.633 97.5547 143.812 97.7891 143.906V144H91.6484C91.6484 143.859 91.5469 143.617 91.3438 143.273C91.1562 142.914 90.9297 142.547 90.6641 142.172C90.4141 141.781 90.1562 141.406 89.8906 141.047C89.6406 140.688 89.4531 140.422 89.3281 140.25L84.3828 133.289ZM99.9922 118.805C101.523 118.805 103.094 118.805 104.703 118.805C106.312 118.789 107.805 118.773 109.18 118.758C110.555 118.727 111.734 118.695 112.719 118.664C113.719 118.633 114.375 118.586 114.688 118.523L113.773 121.055C113.352 120.945 112.875 120.844 112.344 120.75C111.875 120.672 111.305 120.602 110.633 120.539C109.977 120.461 109.211 120.422 108.336 120.422C108.023 120.422 107.664 120.438 107.258 120.469C106.852 120.484 106.461 120.508 106.086 120.539C105.648 120.57 105.203 120.602 104.75 120.633V129.891C106.016 129.875 107.156 129.844 108.172 129.797C109.188 129.75 110.055 129.688 110.773 129.609C111.617 129.547 112.359 129.461 113 129.352L112.438 132.141C111.578 132.031 110.711 131.938 109.836 131.859C109.086 131.781 108.258 131.719 107.352 131.672C106.445 131.609 105.578 131.578 104.75 131.578V142.219C106.203 142.219 107.539 142.164 108.758 142.055C109.977 141.93 111.039 141.797 111.945 141.656C113.008 141.484 113.969 141.289 114.828 141.07L114.289 144.141C114.055 144.125 113.672 144.102 113.141 144.07C112.625 144.055 112.078 144.039 111.5 144.023C110.938 144.023 110.406 144.016 109.906 144C109.406 144 109.062 144 108.875 144H99.9922V143.906C100.102 143.578 100.195 143.156 100.273 142.641C100.367 142.125 100.438 141.492 100.484 140.742C100.547 139.977 100.594 139.07 100.625 138.023C100.656 136.977 100.672 135.75 100.672 134.344V128.438C100.672 127.031 100.656 125.812 100.625 124.781C100.594 123.734 100.547 122.836 100.484 122.086C100.438 121.32 100.367 120.68 100.273 120.164C100.195 119.648 100.102 119.227 99.9922 118.898V118.805ZM147.078 131.414C146.5 134.523 145.266 137.148 143.375 139.289C144.969 140.883 146.602 142.359 148.273 143.719C149.945 145.062 151.586 146.234 153.195 147.234C154.82 148.234 156.383 149.016 157.883 149.578C159.383 150.141 160.758 150.422 162.008 150.422C162.508 150.422 163.008 150.375 163.508 150.281V150.82C163.32 150.898 163.07 151.008 162.758 151.148C162.461 151.289 162.086 151.422 161.633 151.547C161.195 151.672 160.672 151.781 160.062 151.875C159.469 151.969 158.789 152.016 158.023 152.016C156.805 152.016 155.484 151.758 154.062 151.242C152.656 150.742 151.195 150.039 149.68 149.133C148.164 148.242 146.625 147.18 145.062 145.945C143.516 144.711 142 143.359 140.516 141.891C139.156 142.812 137.656 143.523 136.016 144.023C134.391 144.523 132.609 144.773 130.672 144.773C128.922 144.773 127.344 144.555 125.938 144.117C124.547 143.68 123.367 143.055 122.398 142.242C121.43 141.43 120.68 140.445 120.148 139.289C119.633 138.133 119.375 136.836 119.375 135.398C119.375 134.023 119.633 132.805 120.148 131.742C120.664 130.664 121.336 129.695 122.164 128.836C123.008 127.977 123.969 127.195 125.047 126.492C126.125 125.789 127.227 125.109 128.352 124.453C127.898 123.281 127.547 122.141 127.297 121.031C127.047 119.922 126.922 118.859 126.922 117.844C126.922 116.609 127.117 115.5 127.508 114.516C127.914 113.516 128.461 112.672 129.148 111.984C129.836 111.297 130.641 110.766 131.562 110.391C132.5 110.016 133.5 109.828 134.562 109.828C135.344 109.828 136.078 109.938 136.766 110.156C137.453 110.375 138.047 110.703 138.547 111.141C139.062 111.562 139.469 112.094 139.766 112.734C140.062 113.375 140.211 114.117 140.211 114.961C140.211 116.023 139.984 116.977 139.531 117.82C139.094 118.664 138.508 119.438 137.773 120.141C137.055 120.844 136.227 121.5 135.289 122.109C134.352 122.719 133.383 123.312 132.383 123.891C132.883 125.062 133.477 126.25 134.164 127.453C134.867 128.656 135.633 129.859 136.461 131.062C137.289 132.25 138.18 133.422 139.133 134.578C140.086 135.734 141.07 136.859 142.086 137.953C142.836 136.938 143.422 135.781 143.844 134.484C144.281 133.188 144.5 131.766 144.5 130.219C144.5 128.906 144.422 127.812 144.266 126.938C144.125 126.047 143.977 125.289 143.82 124.664V124.57H148.039V124.664C147.93 125.039 147.844 125.461 147.781 125.93C147.734 126.383 147.68 126.891 147.617 127.453C147.555 128 147.484 128.609 147.406 129.281C147.328 129.938 147.219 130.648 147.078 131.414ZM132.43 142.664C133.711 142.664 134.93 142.492 136.086 142.148C137.258 141.805 138.328 141.305 139.297 140.648C138.234 139.523 137.203 138.367 136.203 137.18C135.203 135.977 134.266 134.758 133.391 133.523C132.516 132.273 131.703 131.023 130.953 129.773C130.219 128.508 129.578 127.266 129.031 126.047C128.297 126.547 127.609 127.07 126.969 127.617C126.344 128.164 125.797 128.766 125.328 129.422C124.859 130.078 124.484 130.797 124.203 131.578C123.938 132.344 123.805 133.188 123.805 134.109C123.805 135.328 124.016 136.461 124.438 137.508C124.875 138.555 125.477 139.461 126.242 140.227C127.008 140.992 127.914 141.594 128.961 142.031C130.023 142.453 131.18 142.664 132.43 142.664ZM130.672 116.602C130.672 117.508 130.773 118.445 130.977 119.414C131.18 120.367 131.461 121.359 131.82 122.391C132.586 121.906 133.297 121.406 133.953 120.891C134.625 120.375 135.203 119.82 135.688 119.227C136.188 118.617 136.578 117.969 136.859 117.281C137.141 116.594 137.281 115.836 137.281 115.008C137.281 114.539 137.219 114.102 137.094 113.695C136.984 113.273 136.812 112.906 136.578 112.594C136.344 112.266 136.039 112.016 135.664 111.844C135.305 111.656 134.883 111.562 134.398 111.562C133.148 111.562 132.211 112.008 131.586 112.898C130.977 113.789 130.672 115.023 130.672 116.602ZM178.156 138.773L176.328 143.133C175.875 143.336 175.359 143.523 174.781 143.695C174.219 143.852 173.633 143.984 173.023 144.094C172.414 144.203 171.789 144.281 171.148 144.328C170.523 144.391 169.93 144.422 169.367 144.422C167.398 144.422 165.57 144.133 163.883 143.555C162.211 142.977 160.766 142.133 159.547 141.023C158.328 139.898 157.375 138.523 156.688 136.898C156 135.273 155.656 133.414 155.656 131.32C155.656 129.477 156.016 127.766 156.734 126.188C157.453 124.609 158.445 123.242 159.711 122.086C160.977 120.914 162.469 120 164.188 119.344C165.922 118.688 167.797 118.359 169.812 118.359C170.266 118.359 170.742 118.383 171.242 118.43C171.758 118.461 172.266 118.516 172.766 118.594C173.266 118.672 173.75 118.766 174.219 118.875C174.688 118.969 175.125 119.07 175.531 119.18L177.289 123.398L177.008 123.562C176.586 123.047 176.078 122.57 175.484 122.133C174.906 121.695 174.266 121.328 173.562 121.031C172.875 120.719 172.148 120.477 171.383 120.305C170.617 120.133 169.836 120.047 169.039 120.047C167.742 120.047 166.555 120.273 165.477 120.727C164.414 121.18 163.5 121.844 162.734 122.719C161.984 123.578 161.398 124.633 160.977 125.883C160.555 127.133 160.344 128.547 160.344 130.125C160.344 131.906 160.547 133.57 160.953 135.117C161.359 136.648 161.969 137.984 162.781 139.125C163.594 140.25 164.609 141.141 165.828 141.797C167.047 142.438 168.469 142.758 170.094 142.758C170.875 142.758 171.641 142.664 172.391 142.477C173.156 142.273 173.875 141.992 174.547 141.633C175.234 141.273 175.859 140.844 176.422 140.344C176.984 139.828 177.469 139.258 177.875 138.633L178.156 138.773ZM197.75 136.078C197.328 136.078 196.797 136.078 196.156 136.078C195.531 136.078 194.844 136.078 194.094 136.078C193.344 136.078 192.57 136.078 191.773 136.078C190.977 136.078 190.219 136.086 189.5 136.102C188.781 136.102 188.125 136.109 187.531 136.125C186.938 136.125 186.477 136.125 186.148 136.125L185.281 137.953C184.906 138.703 184.586 139.359 184.32 139.922C184.055 140.469 183.836 140.953 183.664 141.375C183.492 141.797 183.367 142.164 183.289 142.477C183.211 142.773 183.172 143.055 183.172 143.32C183.172 143.492 183.18 143.625 183.195 143.719C183.211 143.797 183.234 143.859 183.266 143.906V144H179.141V143.906C179.25 143.797 179.422 143.562 179.656 143.203C179.891 142.828 180.156 142.375 180.453 141.844C180.766 141.312 181.094 140.711 181.438 140.039C181.797 139.367 182.148 138.672 182.492 137.953L192.055 118.219H193.812L203.188 137.953C203.547 138.703 203.906 139.422 204.266 140.109C204.641 140.797 204.984 141.414 205.297 141.961C205.609 142.492 205.883 142.938 206.117 143.297C206.352 143.641 206.508 143.844 206.586 143.906V144H200.586C200.617 143.875 200.633 143.766 200.633 143.672C200.633 143.562 200.633 143.445 200.633 143.32C200.633 142.977 200.555 142.562 200.398 142.078C200.258 141.594 200.078 141.102 199.859 140.602C199.656 140.086 199.438 139.594 199.203 139.125C198.984 138.656 198.805 138.266 198.664 137.953L197.75 136.078ZM187.062 134.25H188.492C189.148 134.25 189.844 134.25 190.578 134.25C191.328 134.234 192.078 134.227 192.828 134.227C193.578 134.227 194.305 134.227 195.008 134.227C195.711 134.211 196.344 134.203 196.906 134.203L192.055 123.844L187.062 134.25ZM214.203 131.766C214.516 131.812 214.828 131.852 215.141 131.883C215.469 131.898 215.781 131.906 216.078 131.906C218.031 131.906 219.508 131.383 220.508 130.336C221.523 129.289 222.031 127.719 222.031 125.625C222.031 123.906 221.625 122.547 220.812 121.547C220.016 120.547 218.836 120.047 217.273 120.047C216.773 120.047 216.328 120.07 215.938 120.117C215.562 120.148 215.242 120.188 214.977 120.234C214.68 120.297 214.422 120.359 214.203 120.422V131.766ZM217.789 133.289C217.477 133.336 217.164 133.367 216.852 133.383C216.555 133.383 216.25 133.383 215.938 133.383C215.688 133.383 215.414 133.375 215.117 133.359C214.82 133.344 214.516 133.32 214.203 133.289V134.438C214.203 135.828 214.219 137.047 214.25 138.094C214.281 139.125 214.32 140.016 214.367 140.766C214.43 141.516 214.5 142.148 214.578 142.664C214.656 143.164 214.75 143.578 214.859 143.906V144H209.445V143.906C209.555 143.578 209.648 143.156 209.727 142.641C209.82 142.125 209.891 141.492 209.938 140.742C210 139.977 210.047 139.07 210.078 138.023C210.109 136.977 210.125 135.75 210.125 134.344V128.438C210.125 127.031 210.109 125.812 210.078 124.781C210.047 123.734 210 122.836 209.938 122.086C209.891 121.32 209.82 120.68 209.727 120.164C209.648 119.648 209.555 119.227 209.445 118.898V118.805C209.695 118.82 209.961 118.836 210.242 118.852C210.477 118.867 210.734 118.883 211.016 118.898C211.312 118.898 211.609 118.898 211.906 118.898C212.406 118.898 213.148 118.852 214.133 118.758C215.117 118.664 216.273 118.617 217.602 118.617C218.945 118.617 220.164 118.781 221.258 119.109C222.367 119.438 223.312 119.906 224.094 120.516C224.891 121.125 225.5 121.867 225.922 122.742C226.359 123.617 226.578 124.594 226.578 125.672C226.578 126.516 226.461 127.289 226.227 127.992C225.992 128.68 225.664 129.305 225.242 129.867C224.82 130.414 224.32 130.898 223.742 131.32C223.164 131.742 222.523 132.109 221.82 132.422L226.719 139.336C227.141 139.898 227.562 140.438 227.984 140.953C228.422 141.469 228.836 141.93 229.227 142.336C229.617 142.742 229.984 143.086 230.328 143.367C230.672 143.633 230.961 143.812 231.195 143.906V144H225.055C225.055 143.859 224.953 143.617 224.75 143.273C224.562 142.914 224.336 142.547 224.07 142.172C223.82 141.781 223.562 141.406 223.297 141.047C223.047 140.688 222.859 140.422 222.734 140.25L217.789 133.289ZM233.398 118.805C234.93 118.805 236.5 118.805 238.109 118.805C239.719 118.789 241.211 118.773 242.586 118.758C243.961 118.727 245.141 118.695 246.125 118.664C247.125 118.633 247.781 118.586 248.094 118.523L247.18 121.055C246.758 120.945 246.281 120.844 245.75 120.75C245.281 120.672 244.711 120.602 244.039 120.539C243.383 120.461 242.617 120.422 241.742 120.422C241.43 120.422 241.07 120.438 240.664 120.469C240.258 120.484 239.867 120.508 239.492 120.539C239.055 120.57 238.609 120.602 238.156 120.633V129.891C239.422 129.875 240.562 129.844 241.578 129.797C242.594 129.75 243.461 129.688 244.18 129.609C245.023 129.547 245.766 129.461 246.406 129.352L245.844 132.141C244.984 132.031 244.117 131.938 243.242 131.859C242.492 131.781 241.664 131.719 240.758 131.672C239.852 131.609 238.984 131.578 238.156 131.578V142.219C239.609 142.219 240.945 142.164 242.164 142.055C243.383 141.93 244.445 141.797 245.352 141.656C246.414 141.484 247.375 141.289 248.234 141.07L247.695 144.141C247.461 144.125 247.078 144.102 246.547 144.07C246.031 144.055 245.484 144.039 244.906 144.023C244.344 144.023 243.812 144.016 243.312 144C242.812 144 242.469 144 242.281 144H233.398V143.906C233.508 143.578 233.602 143.156 233.68 142.641C233.773 142.125 233.844 141.492 233.891 140.742C233.953 139.977 234 139.07 234.031 138.023C234.062 136.977 234.078 135.75 234.078 134.344V128.438C234.078 127.031 234.062 125.812 234.031 124.781C234 123.734 233.953 122.836 233.891 122.086C233.844 121.32 233.773 120.68 233.68 120.164C233.602 119.648 233.508 119.227 233.398 118.898V118.805Z" fill="#0E0D0D"/>
</svg>
