<svg width="268" height="106" viewBox="0 0 268 106" fill="none" xmlns="http://www.w3.org/2000/svg">
<path d="M133.904 52.8165L99.0638 25.5915C95.5332 22.8327 96.7334 17.0884 101.136 15.7376L138.165 4.35262C138.949 4.03199 139.789 3.92791 140.617 4.04902C141.444 4.17013 142.233 4.51293 142.92 5.04899C143.606 5.58504 144.17 6.29887 144.565 7.13124C144.959 7.96361 145.172 8.89052 145.187 9.83502L142.992 48.4429C142.732 53.0255 137.434 55.5753 133.904 52.8165Z" fill="#E9327C"/>
<path d="M122.854 59.5375L102.328 14.0658C101.859 13.0255 101.653 11.8586 101.732 10.6939C101.811 9.52915 102.172 8.41175 102.776 7.46494C103.38 6.51812 104.203 5.77866 105.155 5.3281C106.106 4.87754 107.149 4.7334 108.168 4.91157L146.207 11.5622C147.082 11.7153 147.913 12.1017 148.632 12.6897C149.35 13.2776 149.935 14.0503 150.338 14.9442C150.741 15.8381 150.951 16.8276 150.951 17.8315C150.951 18.8353 150.741 19.8248 150.337 20.7186L132.814 59.5397C132.344 60.577 131.63 61.4473 130.751 62.0547C129.872 62.6623 128.863 62.9835 127.833 62.9833C126.804 62.9831 125.794 62.6615 124.916 62.0536C124.037 61.4455 123.324 60.575 122.854 59.5375Z" fill="#1DACE3"/>
<path d="M145.094 11.3663L126.132 8.05089L102.851 15.2119L112.143 35.8061L133.904 52.8165C134.384 53.1876 134.912 53.4718 135.469 53.6591L143.734 35.3485L145.094 11.3663Z" fill="#001A49"/>
<path d="M57.6562 86.4688H57.3438C57.2812 86.2917 57.1771 86.0677 57.0312 85.7969C56.8958 85.526 56.7083 85.2604 56.4688 85C56.2396 84.7396 55.9531 84.5208 55.6094 84.3438C55.2656 84.1562 54.8542 84.0625 54.375 84.0625C54.0104 84.0625 53.6823 84.125 53.3906 84.25C53.1094 84.3646 52.8698 84.526 52.6719 84.7344C52.474 84.9427 52.3229 85.1927 52.2188 85.4844C52.1146 85.7656 52.0625 86.0729 52.0625 86.4062C52.0625 86.9479 52.224 87.4635 52.5469 87.9531C52.8802 88.4427 53.2917 88.9323 53.7812 89.4219C54.2708 89.901 54.8021 90.3854 55.375 90.875C55.9479 91.3646 56.4792 91.875 56.9688 92.4062C57.4583 92.9375 57.8646 93.5 58.1875 94.0938C58.5208 94.6875 58.6875 95.3229 58.6875 96C58.6875 96.5 58.5938 97.0156 58.4062 97.5469C58.2292 98.0781 57.9375 98.5573 57.5312 98.9844C57.125 99.4115 56.6042 99.7604 55.9688 100.031C55.3333 100.312 54.5625 100.453 53.6562 100.453C53.1562 100.453 52.6771 100.411 52.2188 100.328C51.7708 100.245 51.3542 100.141 50.9688 100.016C50.5938 99.901 50.2552 99.776 49.9531 99.6406C49.6615 99.4948 49.4167 99.3594 49.2188 99.2344L49.5 96.2812H49.8281C49.9323 96.6458 50.0833 97.0104 50.2812 97.375C50.4896 97.7396 50.7396 98.0729 51.0312 98.375C51.3333 98.6667 51.6823 98.9062 52.0781 99.0938C52.4844 99.2708 52.9479 99.3594 53.4688 99.3594C53.8333 99.3594 54.1771 99.3021 54.5 99.1875C54.8229 99.0625 55.099 98.8906 55.3281 98.6719C55.5677 98.4531 55.7552 98.1875 55.8906 97.875C56.026 97.5521 56.0938 97.1927 56.0938 96.7969C56.0938 96.3281 56 95.8958 55.8125 95.5C55.625 95.0938 55.375 94.7083 55.0625 94.3438C54.75 93.9688 54.3958 93.6094 54 93.2656C53.6146 92.9219 53.2135 92.5729 52.7969 92.2188C52.3802 91.8646 51.974 91.5052 51.5781 91.1406C51.1927 90.7656 50.8438 90.3646 50.5312 89.9375C50.2188 89.5104 49.9688 89.0573 49.7812 88.5781C49.5938 88.0885 49.5 87.5521 49.5 86.9688C49.5 86.3542 49.6302 85.8021 49.8906 85.3125C50.151 84.8229 50.4948 84.4115 50.9219 84.0781C51.349 83.7344 51.8385 83.474 52.3906 83.2969C52.9427 83.1094 53.5156 83.0156 54.1094 83.0156C54.5469 83.0156 54.9531 83.0469 55.3281 83.1094C55.7135 83.1719 56.0573 83.25 56.3594 83.3438C56.6719 83.4271 56.9427 83.5156 57.1719 83.6094C57.401 83.6927 57.5885 83.7604 57.7344 83.8125L57.6562 86.4688ZM74.0781 91.9688C73.7552 91.9688 73.3542 91.9688 72.875 91.9688C72.3958 91.9583 71.875 91.9479 71.3125 91.9375C70.75 91.9271 70.1667 91.9219 69.5625 91.9219C68.9583 91.9115 68.375 91.9062 67.8125 91.9062C67.2812 91.9062 66.7812 91.9115 66.3125 91.9219C65.8542 91.9323 65.4583 91.9479 65.125 91.9688V93.5625C65.125 94.5 65.1354 95.3177 65.1562 96.0156C65.1771 96.7135 65.2031 97.3177 65.2344 97.8281C65.276 98.3281 65.3229 98.75 65.375 99.0938C65.4271 99.4375 65.4896 99.7188 65.5625 99.9375V100H61.9531V99.9375C62.026 99.7188 62.0885 99.4375 62.1406 99.0938C62.2031 98.75 62.25 98.3281 62.2812 97.8281C62.3229 97.3177 62.3542 96.7135 62.375 96.0156C62.3958 95.3177 62.4062 94.5 62.4062 93.5625V89.625C62.4062 88.6875 62.3958 87.875 62.375 87.1875C62.3542 86.4896 62.3229 85.8906 62.2812 85.3906C62.25 84.8802 62.2031 84.4531 62.1406 84.1094C62.0885 83.7656 62.026 83.4844 61.9531 83.2656V83.2031H65.5625V83.2656C65.4896 83.4844 65.4271 83.7656 65.375 84.1094C65.3229 84.4531 65.276 84.8802 65.2344 85.3906C65.2031 85.8906 65.1771 86.4896 65.1562 87.1875C65.1354 87.875 65.125 88.6875 65.125 89.625V90.6875H67.4219C67.9948 90.6875 68.599 90.6875 69.2344 90.6875C69.8698 90.6771 70.4844 90.6719 71.0781 90.6719C71.6719 90.6615 72.2292 90.651 72.75 90.6406C73.2708 90.6302 73.7135 90.6146 74.0781 90.5938V89.625C74.0781 88.6875 74.0677 87.875 74.0469 87.1875C74.026 86.4896 73.9948 85.8906 73.9531 85.3906C73.9219 84.8802 73.8802 84.4531 73.8281 84.1094C73.776 83.7656 73.7135 83.4844 73.6406 83.2656V83.2031H77.25V83.2656C77.1771 83.4844 77.1094 83.7656 77.0469 84.1094C76.9948 84.4531 76.9479 84.8802 76.9062 85.3906C76.875 85.8906 76.849 86.4896 76.8281 87.1875C76.8073 87.875 76.7969 88.6875 76.7969 89.625V93.5625C76.7969 94.5 76.8073 95.3177 76.8281 96.0156C76.849 96.7135 76.875 97.3177 76.9062 97.8281C76.9479 98.3281 76.9948 98.75 77.0469 99.0938C77.1094 99.4375 77.1771 99.7188 77.25 99.9375V100H73.6406V99.9375C73.7135 99.7188 73.776 99.4375 73.8281 99.0938C73.8802 98.75 73.9219 98.3281 73.9531 97.8281C73.9948 97.3177 74.026 96.7135 74.0469 96.0156C74.0677 95.3177 74.0781 94.5 74.0781 93.5625V91.9688ZM91.5625 94.7188C91.2812 94.7188 90.9271 94.7188 90.5 94.7188C90.0833 94.7188 89.625 94.7188 89.125 94.7188C88.625 94.7188 88.1094 94.7188 87.5781 94.7188C87.0469 94.7188 86.5417 94.724 86.0625 94.7344C85.5833 94.7344 85.1458 94.7396 84.75 94.75C84.3542 94.75 84.0469 94.75 83.8281 94.75L83.25 95.9688C83 96.4688 82.7865 96.9062 82.6094 97.2812C82.4323 97.6458 82.2865 97.9688 82.1719 98.25C82.0573 98.5312 81.974 98.776 81.9219 98.9844C81.8698 99.1823 81.8438 99.3698 81.8438 99.5469C81.8438 99.6615 81.849 99.75 81.8594 99.8125C81.8698 99.8646 81.8854 99.9062 81.9062 99.9375V100H79.1562V99.9375C79.2292 99.8646 79.3438 99.7083 79.5 99.4688C79.6562 99.2188 79.8333 98.9167 80.0312 98.5625C80.2396 98.2083 80.4583 97.8073 80.6875 97.3594C80.9271 96.9115 81.1615 96.4479 81.3906 95.9688L87.7656 82.8125H88.9375L95.1875 95.9688C95.4271 96.4688 95.6667 96.9479 95.9062 97.4062C96.1562 97.8646 96.3854 98.276 96.5938 98.6406C96.8021 98.9948 96.9844 99.2917 97.1406 99.5312C97.2969 99.7604 97.401 99.8958 97.4531 99.9375V100H93.4531C93.474 99.9167 93.4844 99.8438 93.4844 99.7812C93.4844 99.7083 93.4844 99.6302 93.4844 99.5469C93.4844 99.3177 93.4323 99.0417 93.3281 98.7188C93.2344 98.3958 93.1146 98.0677 92.9688 97.7344C92.8333 97.3906 92.6875 97.0625 92.5312 96.75C92.3854 96.4375 92.2656 96.1771 92.1719 95.9688L91.5625 94.7188ZM84.4375 93.5H85.3906C85.8281 93.5 86.2917 93.5 86.7812 93.5C87.2812 93.4896 87.7812 93.4844 88.2812 93.4844C88.7812 93.4844 89.2656 93.4844 89.7344 93.4844C90.2031 93.474 90.625 93.4688 91 93.4688L87.7656 86.5625L84.4375 93.5ZM102.531 91.8438C102.74 91.875 102.948 91.901 103.156 91.9219C103.375 91.9323 103.583 91.9375 103.781 91.9375C105.083 91.9375 106.068 91.5885 106.734 90.8906C107.411 90.1927 107.75 89.1458 107.75 87.75C107.75 86.6042 107.479 85.6979 106.938 85.0312C106.406 84.3646 105.62 84.0312 104.578 84.0312C104.245 84.0312 103.948 84.0469 103.688 84.0781C103.438 84.099 103.224 84.125 103.047 84.1562C102.849 84.1979 102.677 84.2396 102.531 84.2812V91.8438ZM104.922 92.8594C104.714 92.8906 104.505 92.9115 104.297 92.9219C104.099 92.9219 103.896 92.9219 103.688 92.9219C103.521 92.9219 103.339 92.9167 103.141 92.9062C102.943 92.8958 102.74 92.8802 102.531 92.8594V93.625C102.531 94.5521 102.542 95.3646 102.562 96.0625C102.583 96.75 102.609 97.3438 102.641 97.8438C102.682 98.3438 102.729 98.7656 102.781 99.1094C102.833 99.4427 102.896 99.7188 102.969 99.9375V100H99.3594V99.9375C99.4323 99.7188 99.4948 99.4375 99.5469 99.0938C99.6094 98.75 99.6562 98.3281 99.6875 97.8281C99.7292 97.3177 99.7604 96.7135 99.7812 96.0156C99.8021 95.3177 99.8125 94.5 99.8125 93.5625V89.625C99.8125 88.6875 99.8021 87.875 99.7812 87.1875C99.7604 86.4896 99.7292 85.8906 99.6875 85.3906C99.6562 84.8802 99.6094 84.4531 99.5469 84.1094C99.4948 83.7656 99.4323 83.4844 99.3594 83.2656V83.2031C99.526 83.2135 99.7031 83.224 99.8906 83.2344C100.047 83.2448 100.219 83.2552 100.406 83.2656C100.604 83.2656 100.802 83.2656 101 83.2656C101.333 83.2656 101.828 83.2344 102.484 83.1719C103.141 83.1094 103.911 83.0781 104.797 83.0781C105.693 83.0781 106.505 83.1875 107.234 83.4062C107.974 83.625 108.604 83.9375 109.125 84.3438C109.656 84.75 110.062 85.2448 110.344 85.8281C110.635 86.4115 110.781 87.0625 110.781 87.7812C110.781 88.3438 110.703 88.8594 110.547 89.3281C110.391 89.7865 110.172 90.2031 109.891 90.5781C109.609 90.9427 109.276 91.2656 108.891 91.5469C108.505 91.8281 108.078 92.0729 107.609 92.2812L110.875 96.8906C111.156 97.2656 111.438 97.625 111.719 97.9688C112.01 98.3125 112.286 98.6198 112.547 98.8906C112.807 99.1615 113.052 99.3906 113.281 99.5781C113.51 99.7552 113.703 99.875 113.859 99.9375V100H109.766C109.766 99.9062 109.698 99.7448 109.562 99.5156C109.438 99.276 109.286 99.0312 109.109 98.7812C108.943 98.5208 108.771 98.2708 108.594 98.0312C108.427 97.7917 108.302 97.6146 108.219 97.5L104.922 92.8594ZM115.328 83.2031C116.349 83.2031 117.396 83.2031 118.469 83.2031C119.542 83.1927 120.536 83.1823 121.453 83.1719C122.37 83.151 123.156 83.1302 123.812 83.1094C124.479 83.0885 124.917 83.0573 125.125 83.0156L124.516 84.7031C124.234 84.6302 123.917 84.5625 123.562 84.5C123.25 84.4479 122.87 84.401 122.422 84.3594C121.984 84.3073 121.474 84.2812 120.891 84.2812C120.682 84.2812 120.443 84.2917 120.172 84.3125C119.901 84.3229 119.641 84.3385 119.391 84.3594C119.099 84.3802 118.802 84.401 118.5 84.4219V90.5938C119.344 90.5833 120.104 90.5625 120.781 90.5312C121.458 90.5 122.036 90.4583 122.516 90.4062C123.078 90.3646 123.573 90.3073 124 90.2344L123.625 92.0938C123.052 92.0208 122.474 91.9583 121.891 91.9062C121.391 91.8542 120.839 91.8125 120.234 91.7812C119.63 91.7396 119.052 91.7188 118.5 91.7188V98.8125C119.469 98.8125 120.359 98.776 121.172 98.7031C121.984 98.6198 122.693 98.5312 123.297 98.4375C124.005 98.3229 124.646 98.1927 125.219 98.0469L124.859 100.094C124.703 100.083 124.448 100.068 124.094 100.047C123.75 100.036 123.385 100.026 123 100.016C122.625 100.016 122.271 100.01 121.938 100C121.604 100 121.375 100 121.25 100H115.328V99.9375C115.401 99.7188 115.464 99.4375 115.516 99.0938C115.578 98.75 115.625 98.3281 115.656 97.8281C115.698 97.3177 115.729 96.7135 115.75 96.0156C115.771 95.3177 115.781 94.5 115.781 93.5625V89.625C115.781 88.6875 115.771 87.875 115.75 87.1875C115.729 86.4896 115.698 85.8906 115.656 85.3906C115.625 84.8802 115.578 84.4531 115.516 84.1094C115.464 83.7656 115.401 83.4844 115.328 83.2656V83.2031ZM146.719 91.6094C146.333 93.6823 145.51 95.4323 144.25 96.8594C145.312 97.9219 146.401 98.9062 147.516 99.8125C148.63 100.708 149.724 101.49 150.797 102.156C151.88 102.823 152.922 103.344 153.922 103.719C154.922 104.094 155.839 104.281 156.672 104.281C157.005 104.281 157.339 104.25 157.672 104.188V104.547C157.547 104.599 157.38 104.672 157.172 104.766C156.974 104.859 156.724 104.948 156.422 105.031C156.13 105.115 155.781 105.188 155.375 105.25C154.979 105.312 154.526 105.344 154.016 105.344C153.203 105.344 152.323 105.172 151.375 104.828C150.438 104.495 149.464 104.026 148.453 103.422C147.443 102.828 146.417 102.12 145.375 101.297C144.344 100.474 143.333 99.5729 142.344 98.5938C141.438 99.2083 140.438 99.6823 139.344 100.016C138.26 100.349 137.073 100.516 135.781 100.516C134.615 100.516 133.562 100.37 132.625 100.078C131.698 99.7865 130.911 99.3698 130.266 98.8281C129.62 98.2865 129.12 97.6302 128.766 96.8594C128.422 96.0885 128.25 95.224 128.25 94.2656C128.25 93.349 128.422 92.5365 128.766 91.8281C129.109 91.1094 129.557 90.4635 130.109 89.8906C130.672 89.3177 131.312 88.7969 132.031 88.3281C132.75 87.8594 133.484 87.4062 134.234 86.9688C133.932 86.1875 133.698 85.4271 133.531 84.6875C133.365 83.9479 133.281 83.2396 133.281 82.5625C133.281 81.7396 133.411 81 133.672 80.3438C133.943 79.6771 134.307 79.1146 134.766 78.6562C135.224 78.1979 135.76 77.8438 136.375 77.5938C137 77.3438 137.667 77.2188 138.375 77.2188C138.896 77.2188 139.385 77.2917 139.844 77.4375C140.302 77.5833 140.698 77.8021 141.031 78.0938C141.375 78.375 141.646 78.7292 141.844 79.1562C142.042 79.5833 142.141 80.0781 142.141 80.6406C142.141 81.349 141.99 81.9844 141.688 82.5469C141.396 83.1094 141.005 83.625 140.516 84.0938C140.036 84.5625 139.484 85 138.859 85.4062C138.234 85.8125 137.589 86.2083 136.922 86.5938C137.255 87.375 137.651 88.1667 138.109 88.9688C138.578 89.7708 139.089 90.5729 139.641 91.375C140.193 92.1667 140.786 92.9479 141.422 93.7188C142.057 94.4896 142.714 95.2396 143.391 95.9688C143.891 95.2917 144.281 94.5208 144.562 93.6562C144.854 92.7917 145 91.8438 145 90.8125C145 89.9375 144.948 89.2083 144.844 88.625C144.75 88.0312 144.651 87.526 144.547 87.1094V87.0469H147.359V87.1094C147.286 87.3594 147.229 87.6406 147.188 87.9531C147.156 88.2552 147.12 88.5938 147.078 88.9688C147.036 89.3333 146.99 89.7396 146.938 90.1875C146.885 90.625 146.812 91.099 146.719 91.6094ZM136.953 99.1094C137.807 99.1094 138.62 98.9948 139.391 98.7656C140.172 98.5365 140.885 98.2031 141.531 97.7656C140.823 97.0156 140.135 96.2448 139.469 95.4531C138.802 94.651 138.177 93.8385 137.594 93.0156C137.01 92.1823 136.469 91.349 135.969 90.5156C135.479 89.6719 135.052 88.8438 134.688 88.0312C134.198 88.3646 133.74 88.7135 133.312 89.0781C132.896 89.4427 132.531 89.8438 132.219 90.2812C131.906 90.7188 131.656 91.1979 131.469 91.7188C131.292 92.2292 131.203 92.7917 131.203 93.4062C131.203 94.2188 131.344 94.974 131.625 95.6719C131.917 96.3698 132.318 96.974 132.828 97.4844C133.339 97.9948 133.943 98.3958 134.641 98.6875C135.349 98.9688 136.12 99.1094 136.953 99.1094ZM135.781 81.7344C135.781 82.3385 135.849 82.9635 135.984 83.6094C136.12 84.2448 136.307 84.9062 136.547 85.5938C137.057 85.2708 137.531 84.9375 137.969 84.5938C138.417 84.25 138.802 83.8802 139.125 83.4844C139.458 83.0781 139.719 82.6458 139.906 82.1875C140.094 81.7292 140.188 81.224 140.188 80.6719C140.188 80.3594 140.146 80.0677 140.062 79.7969C139.99 79.5156 139.875 79.2708 139.719 79.0625C139.562 78.8438 139.359 78.6771 139.109 78.5625C138.87 78.4375 138.589 78.375 138.266 78.375C137.432 78.375 136.807 78.6719 136.391 79.2656C135.984 79.8594 135.781 80.6823 135.781 81.7344ZM167.438 96.5156L166.219 99.4219C165.917 99.5573 165.573 99.6823 165.188 99.7969C164.812 99.901 164.422 99.9896 164.016 100.062C163.609 100.135 163.193 100.188 162.766 100.219C162.349 100.26 161.953 100.281 161.578 100.281C160.266 100.281 159.047 100.089 157.922 99.7031C156.807 99.3177 155.844 98.7552 155.031 98.0156C154.219 97.2656 153.583 96.349 153.125 95.2656C152.667 94.1823 152.438 92.9427 152.438 91.5469C152.438 90.3177 152.677 89.1771 153.156 88.125C153.635 87.0729 154.297 86.1615 155.141 85.3906C155.984 84.6094 156.979 84 158.125 83.5625C159.281 83.125 160.531 82.9062 161.875 82.9062C162.177 82.9062 162.495 82.9219 162.828 82.9531C163.172 82.974 163.51 83.0104 163.844 83.0625C164.177 83.1146 164.5 83.1771 164.812 83.25C165.125 83.3125 165.417 83.3802 165.688 83.4531L166.859 86.2656L166.672 86.375C166.391 86.0312 166.052 85.7135 165.656 85.4219C165.271 85.1302 164.844 84.8854 164.375 84.6875C163.917 84.4792 163.432 84.3177 162.922 84.2031C162.411 84.0885 161.891 84.0312 161.359 84.0312C160.495 84.0312 159.703 84.1823 158.984 84.4844C158.276 84.7865 157.667 85.2292 157.156 85.8125C156.656 86.3854 156.266 87.0885 155.984 87.9219C155.703 88.7552 155.562 89.6979 155.562 90.75C155.562 91.9375 155.698 93.0469 155.969 94.0781C156.24 95.099 156.646 95.9896 157.188 96.75C157.729 97.5 158.406 98.0938 159.219 98.5312C160.031 98.9583 160.979 99.1719 162.062 99.1719C162.583 99.1719 163.094 99.1094 163.594 98.9844C164.104 98.849 164.583 98.6615 165.031 98.4219C165.49 98.1823 165.906 97.8958 166.281 97.5625C166.656 97.2188 166.979 96.8385 167.25 96.4219L167.438 96.5156ZM180.5 94.7188C180.219 94.7188 179.865 94.7188 179.438 94.7188C179.021 94.7188 178.562 94.7188 178.062 94.7188C177.562 94.7188 177.047 94.7188 176.516 94.7188C175.984 94.7188 175.479 94.724 175 94.7344C174.521 94.7344 174.083 94.7396 173.688 94.75C173.292 94.75 172.984 94.75 172.766 94.75L172.188 95.9688C171.938 96.4688 171.724 96.9062 171.547 97.2812C171.37 97.6458 171.224 97.9688 171.109 98.25C170.995 98.5312 170.911 98.776 170.859 98.9844C170.807 99.1823 170.781 99.3698 170.781 99.5469C170.781 99.6615 170.786 99.75 170.797 99.8125C170.807 99.8646 170.823 99.9062 170.844 99.9375V100H168.094V99.9375C168.167 99.8646 168.281 99.7083 168.438 99.4688C168.594 99.2188 168.771 98.9167 168.969 98.5625C169.177 98.2083 169.396 97.8073 169.625 97.3594C169.865 96.9115 170.099 96.4479 170.328 95.9688L176.703 82.8125H177.875L184.125 95.9688C184.365 96.4688 184.604 96.9479 184.844 97.4062C185.094 97.8646 185.323 98.276 185.531 98.6406C185.74 98.9948 185.922 99.2917 186.078 99.5312C186.234 99.7604 186.339 99.8958 186.391 99.9375V100H182.391C182.411 99.9167 182.422 99.8438 182.422 99.7812C182.422 99.7083 182.422 99.6302 182.422 99.5469C182.422 99.3177 182.37 99.0417 182.266 98.7188C182.172 98.3958 182.052 98.0677 181.906 97.7344C181.771 97.3906 181.625 97.0625 181.469 96.75C181.323 96.4375 181.203 96.1771 181.109 95.9688L180.5 94.7188ZM173.375 93.5H174.328C174.766 93.5 175.229 93.5 175.719 93.5C176.219 93.4896 176.719 93.4844 177.219 93.4844C177.719 93.4844 178.203 93.4844 178.672 93.4844C179.141 93.474 179.562 93.4688 179.938 93.4688L176.703 86.5625L173.375 93.5ZM191.469 91.8438C191.677 91.875 191.885 91.901 192.094 91.9219C192.312 91.9323 192.521 91.9375 192.719 91.9375C194.021 91.9375 195.005 91.5885 195.672 90.8906C196.349 90.1927 196.688 89.1458 196.688 87.75C196.688 86.6042 196.417 85.6979 195.875 85.0312C195.344 84.3646 194.557 84.0312 193.516 84.0312C193.182 84.0312 192.885 84.0469 192.625 84.0781C192.375 84.099 192.161 84.125 191.984 84.1562C191.786 84.1979 191.615 84.2396 191.469 84.2812V91.8438ZM193.859 92.8594C193.651 92.8906 193.443 92.9115 193.234 92.9219C193.036 92.9219 192.833 92.9219 192.625 92.9219C192.458 92.9219 192.276 92.9167 192.078 92.9062C191.88 92.8958 191.677 92.8802 191.469 92.8594V93.625C191.469 94.5521 191.479 95.3646 191.5 96.0625C191.521 96.75 191.547 97.3438 191.578 97.8438C191.62 98.3438 191.667 98.7656 191.719 99.1094C191.771 99.4427 191.833 99.7188 191.906 99.9375V100H188.297V99.9375C188.37 99.7188 188.432 99.4375 188.484 99.0938C188.547 98.75 188.594 98.3281 188.625 97.8281C188.667 97.3177 188.698 96.7135 188.719 96.0156C188.74 95.3177 188.75 94.5 188.75 93.5625V89.625C188.75 88.6875 188.74 87.875 188.719 87.1875C188.698 86.4896 188.667 85.8906 188.625 85.3906C188.594 84.8802 188.547 84.4531 188.484 84.1094C188.432 83.7656 188.37 83.4844 188.297 83.2656V83.2031C188.464 83.2135 188.641 83.224 188.828 83.2344C188.984 83.2448 189.156 83.2552 189.344 83.2656C189.542 83.2656 189.74 83.2656 189.938 83.2656C190.271 83.2656 190.766 83.2344 191.422 83.1719C192.078 83.1094 192.849 83.0781 193.734 83.0781C194.63 83.0781 195.443 83.1875 196.172 83.4062C196.911 83.625 197.542 83.9375 198.062 84.3438C198.594 84.75 199 85.2448 199.281 85.8281C199.573 86.4115 199.719 87.0625 199.719 87.7812C199.719 88.3438 199.641 88.8594 199.484 89.3281C199.328 89.7865 199.109 90.2031 198.828 90.5781C198.547 90.9427 198.214 91.2656 197.828 91.5469C197.443 91.8281 197.016 92.0729 196.547 92.2812L199.812 96.8906C200.094 97.2656 200.375 97.625 200.656 97.9688C200.948 98.3125 201.224 98.6198 201.484 98.8906C201.745 99.1615 201.99 99.3906 202.219 99.5781C202.448 99.7552 202.641 99.875 202.797 99.9375V100H198.703C198.703 99.9062 198.635 99.7448 198.5 99.5156C198.375 99.276 198.224 99.0312 198.047 98.7812C197.88 98.5208 197.708 98.2708 197.531 98.0312C197.365 97.7917 197.24 97.6146 197.156 97.5L193.859 92.8594ZM204.266 83.2031C205.286 83.2031 206.333 83.2031 207.406 83.2031C208.479 83.1927 209.474 83.1823 210.391 83.1719C211.307 83.151 212.094 83.1302 212.75 83.1094C213.417 83.0885 213.854 83.0573 214.062 83.0156L213.453 84.7031C213.172 84.6302 212.854 84.5625 212.5 84.5C212.188 84.4479 211.807 84.401 211.359 84.3594C210.922 84.3073 210.411 84.2812 209.828 84.2812C209.62 84.2812 209.38 84.2917 209.109 84.3125C208.839 84.3229 208.578 84.3385 208.328 84.3594C208.036 84.3802 207.74 84.401 207.438 84.4219V90.5938C208.281 90.5833 209.042 90.5625 209.719 90.5312C210.396 90.5 210.974 90.4583 211.453 90.4062C212.016 90.3646 212.51 90.3073 212.938 90.2344L212.562 92.0938C211.99 92.0208 211.411 91.9583 210.828 91.9062C210.328 91.8542 209.776 91.8125 209.172 91.7812C208.568 91.7396 207.99 91.7188 207.438 91.7188V98.8125C208.406 98.8125 209.297 98.776 210.109 98.7031C210.922 98.6198 211.63 98.5312 212.234 98.4375C212.943 98.3229 213.583 98.1927 214.156 98.0469L213.797 100.094C213.641 100.083 213.385 100.068 213.031 100.047C212.688 100.036 212.323 100.026 211.938 100.016C211.562 100.016 211.208 100.01 210.875 100C210.542 100 210.312 100 210.188 100H204.266V99.9375C204.339 99.7188 204.401 99.4375 204.453 99.0938C204.516 98.75 204.562 98.3281 204.594 97.8281C204.635 97.3177 204.667 96.7135 204.688 96.0156C204.708 95.3177 204.719 94.5 204.719 93.5625V89.625C204.719 88.6875 204.708 87.875 204.688 87.1875C204.667 86.4896 204.635 85.8906 204.594 85.3906C204.562 84.8802 204.516 84.4531 204.453 84.1094C204.401 83.7656 204.339 83.4844 204.266 83.2656V83.2031Z" fill="white"/>
</svg>
