<svg width="218" height="177" viewBox="0 0 218 177" fill="none" xmlns="http://www.w3.org/2000/svg">
<path d="M7.472 176.288C5.936 176.288 4.64 176 3.584 175.424C2.528 174.816 1.744 174.048 1.232 173.12C0.72 172.16 0.464 171.168 0.464 170.144C0.464 169.088 0.72 168.176 1.232 167.408C1.712 166.608 2.304 166.032 3.008 165.68C4.256 163.44 5.344 161.184 6.272 158.912C7.2 156.608 8.08 154.128 8.912 151.472L16.016 150.512C16.176 154.608 16.448 159.04 16.832 163.808C16.992 165.728 17.072 167.12 17.072 167.984C17.072 168.72 17.008 169.328 16.88 169.808C18.384 168.944 19.536 168.144 20.336 167.408H22.352C20.304 169.776 17.856 171.776 15.008 173.408C14.08 174.4 12.928 175.136 11.552 175.616C10.208 176.064 8.848 176.288 7.472 176.288ZM5.936 172.496C7.12 172.496 8.112 172.144 8.912 171.44C9.712 170.736 10.112 169.6 10.112 168.032C10.112 167.072 10.016 165.728 9.824 164C9.504 160.352 9.296 157.904 9.2 156.656C8.432 159.184 7.136 162.208 5.312 165.728C6.048 166.112 6.416 166.672 6.416 167.408C6.416 168.016 6.208 168.56 5.792 169.04C5.408 169.52 4.912 169.76 4.304 169.76C3.632 169.76 3.2 169.552 3.008 169.136C3.008 170.288 3.232 171.136 3.68 171.68C4.16 172.224 4.912 172.496 5.936 172.496ZM37.6561 176.288C35.7041 176.288 34.2641 175.776 33.3361 174.752C32.4401 173.696 31.9921 172.4 31.9921 170.864C31.9921 170.192 32.0721 169.44 32.2321 168.608C32.3921 167.744 32.5521 166.912 32.7121 166.112C32.9041 165.312 33.0321 164.8 33.0961 164.576C33.3521 163.456 33.5921 162.352 33.8161 161.264C34.0401 160.176 34.1521 159.296 34.1521 158.624C34.1521 156.992 33.5761 156.176 32.4241 156.176C31.5921 156.176 30.8561 156.592 30.2161 157.424C29.5761 158.224 29.0641 159.28 28.6801 160.592L25.4161 176H18.5041L25.4641 143.36L32.5681 142.4L29.9761 154.496C31.5761 152.704 33.4481 151.808 35.5921 151.808C37.2241 151.808 38.5201 152.256 39.4801 153.152C40.4401 154.048 40.9201 155.408 40.9201 157.232C40.9201 158.16 40.8081 159.2 40.5841 160.352C40.3601 161.472 40.0401 162.848 39.6241 164.48C39.3681 165.472 39.1281 166.448 38.9041 167.408C38.7121 168.336 38.6161 169.072 38.6161 169.616C38.6161 170.256 38.7601 170.752 39.0481 171.104C39.3361 171.456 39.8321 171.632 40.5361 171.632C41.4961 171.632 42.2641 171.296 42.8401 170.624C43.4161 169.92 43.9921 168.848 44.5681 167.408H46.5841C45.4001 170.928 44.0241 173.296 42.4561 174.512C40.9201 175.696 39.3201 176.288 37.6561 176.288ZM50.3225 176.288C48.4985 176.288 46.9785 175.664 45.7625 174.416C44.5465 173.168 43.9385 171.216 43.9385 168.56C43.9385 166.192 44.4025 163.712 45.3305 161.12C46.2905 158.496 47.6985 156.288 49.5545 154.496C51.4425 152.672 53.6825 151.76 56.2745 151.76C57.5865 151.76 58.5625 151.984 59.2025 152.432C59.8425 152.88 60.1625 153.472 60.1625 154.208V154.544L60.6905 152H67.6025L64.1465 168.32C64.0185 168.8 63.9545 169.312 63.9545 169.856C63.9545 171.232 64.6105 171.92 65.9225 171.92C66.8185 171.92 67.5865 171.504 68.2265 170.672C68.8985 169.84 69.4265 168.752 69.8105 167.408H71.8265C70.6425 170.864 69.1705 173.216 67.4105 174.464C65.6825 175.68 63.9385 176.288 62.1785 176.288C60.8345 176.288 59.7465 175.92 58.9145 175.184C58.1145 174.416 57.6345 173.312 57.4745 171.872C56.5465 173.184 55.5065 174.256 54.3545 175.088C53.2345 175.888 51.8905 176.288 50.3225 176.288ZM53.4425 171.632C54.2425 171.632 55.0265 171.264 55.7945 170.528C56.5945 169.76 57.1385 168.72 57.4265 167.408L59.7305 156.56C59.7305 156.144 59.5705 155.744 59.2505 155.36C58.9305 154.944 58.4345 154.736 57.7625 154.736C56.4825 154.736 55.3305 155.488 54.3065 156.992C53.2825 158.464 52.4825 160.256 51.9065 162.368C51.3305 164.448 51.0425 166.288 51.0425 167.888C51.0425 169.488 51.2665 170.512 51.7145 170.96C52.1945 171.408 52.7705 171.632 53.4425 171.632ZM73.0921 152H80.0041L79.3801 154.976C80.4681 154.016 81.4441 153.28 82.3081 152.768C83.2041 152.256 84.1641 152 85.1881 152C86.2121 152 87.0121 152.352 87.5881 153.056C88.1961 153.76 88.5001 154.608 88.5001 155.6C88.5001 156.528 88.1961 157.344 87.5881 158.048C86.9801 158.752 86.1321 159.104 85.0441 159.104C84.3401 159.104 83.8601 158.944 83.6041 158.624C83.3801 158.272 83.2041 157.776 83.0761 157.136C82.9801 156.72 82.8841 156.416 82.7881 156.224C82.6921 156.032 82.5161 155.936 82.2601 155.936C81.5881 155.936 81.0121 156.08 80.5321 156.368C80.0841 156.624 79.4921 157.088 78.7561 157.76L74.9161 176H68.0041L73.0921 152ZM94.643 176.288C92.307 176.288 90.483 175.68 89.171 174.464C87.859 173.216 87.203 171.28 87.203 168.656C87.203 166.448 87.635 164.016 88.499 161.36C89.363 158.704 90.771 156.416 92.723 154.496C94.675 152.544 97.155 151.568 100.163 151.568C103.683 151.568 105.443 153.104 105.443 156.176C105.443 157.968 104.931 159.616 103.907 161.12C102.883 162.624 101.523 163.84 99.827 164.768C98.131 165.664 96.323 166.176 94.403 166.304C94.339 167.008 94.307 167.488 94.307 167.744C94.307 170.4 95.299 171.728 97.283 171.728C98.179 171.728 99.139 171.488 100.163 171.008C101.187 170.528 102.115 169.92 102.947 169.184C102.083 173.92 99.315 176.288 94.643 176.288ZM94.739 164C95.955 163.968 97.091 163.568 98.147 162.8C99.235 162.032 100.099 161.056 100.739 159.872C101.411 158.656 101.747 157.392 101.747 156.08C101.747 154.768 101.347 154.112 100.547 154.112C99.427 154.112 98.307 155.136 97.187 157.184C96.099 159.2 95.283 161.472 94.739 164ZM136.989 156.56C137.085 156.944 137.133 157.312 137.133 157.664C137.133 158.784 136.701 159.84 135.837 160.832C135.005 161.824 133.949 162.528 132.669 162.944C132.125 163.104 131.485 163.184 130.749 163.184C130.461 165.904 129.645 168.304 128.301 170.384C126.989 172.432 125.261 174.032 123.117 175.184C120.973 176.304 118.573 176.864 115.917 176.864C112.877 176.864 110.477 176.096 108.717 174.56C106.989 173.024 106.125 170.944 106.125 168.32C106.125 166.56 106.509 164.832 107.277 163.136C108.077 161.408 109.149 159.92 110.493 158.672C111.869 157.424 113.373 156.56 115.005 156.08V155.888C114.013 155.056 113.309 154.176 112.893 153.248C112.477 152.32 112.269 151.168 112.269 149.792C112.269 148.064 112.733 146.448 113.661 144.944C114.621 143.408 115.901 142.192 117.501 141.296C119.133 140.368 120.893 139.904 122.781 139.904C124.957 139.904 126.749 140.528 128.157 141.776C129.565 143.024 130.269 144.608 130.269 146.528C130.269 147.84 129.933 148.912 129.261 149.744C128.589 150.576 127.709 150.992 126.621 150.992C125.405 150.992 124.429 150.496 123.693 149.504C124.269 149.152 124.733 148.608 125.085 147.872C125.469 147.136 125.661 146.352 125.661 145.52C125.661 144.624 125.437 143.92 124.989 143.408C124.541 142.896 123.933 142.64 123.165 142.64C122.333 142.64 121.533 142.96 120.765 143.6C119.997 144.24 119.373 145.104 118.893 146.192C118.445 147.248 118.221 148.368 118.221 149.552C118.221 151.152 118.653 152.512 119.517 153.632C120.381 154.72 121.565 155.456 123.069 155.84V156.032C121.565 156.32 120.141 157.024 118.797 158.144C117.485 159.232 116.429 160.576 115.629 162.176C114.861 163.744 114.477 165.344 114.477 166.976C114.477 168.64 114.893 169.936 115.725 170.864C116.557 171.792 117.709 172.256 119.181 172.256C120.557 172.256 121.917 171.872 123.261 171.104C124.605 170.336 125.757 169.264 126.717 167.888C127.677 166.512 128.317 164.96 128.637 163.232C127.933 163.232 127.197 163.328 126.429 163.52C124.669 164.096 123.405 164.944 122.637 166.064L122.493 166.112C122.141 165.664 121.853 165.088 121.629 164.384C121.501 164 121.437 163.584 121.437 163.136C121.437 162.048 121.821 161.072 122.589 160.208C123.357 159.344 124.317 158.736 125.469 158.384C126.365 158.128 127.597 157.936 129.165 157.808C130.221 157.744 131.133 157.632 131.901 157.472C132.637 157.248 133.373 156.88 134.109 156.368C134.877 155.824 135.453 155.296 135.837 154.784H135.933C136.413 155.264 136.765 155.856 136.989 156.56ZM145.036 176.288C142.668 176.288 140.828 175.68 139.516 174.464C138.204 173.216 137.548 171.28 137.548 168.656C137.548 166.448 137.98 164.016 138.844 161.36C139.74 158.704 141.148 156.416 143.068 154.496C145.02 152.544 147.484 151.568 150.46 151.568C152.38 151.568 153.74 151.984 154.54 152.816C155.372 153.648 155.788 154.704 155.788 155.984C155.788 157.104 155.548 157.968 155.068 158.576C154.588 159.184 153.98 159.488 153.244 159.488C152.7 159.488 152.14 159.296 151.564 158.912C151.948 157.856 152.14 156.912 152.14 156.08C152.14 155.472 152.028 154.992 151.804 154.64C151.58 154.288 151.244 154.112 150.796 154.112C149.836 154.112 148.876 154.896 147.916 156.464C146.956 158.032 146.172 159.936 145.564 162.176C144.956 164.416 144.652 166.432 144.652 168.224C144.652 169.792 144.924 170.864 145.468 171.44C146.012 171.984 146.892 172.256 148.108 172.256C149.836 172.256 151.308 171.856 152.524 171.056C153.772 170.256 155.132 169.04 156.604 167.408H158.236C154.684 173.328 150.284 176.288 145.036 176.288ZM162.354 176.288C160.53 176.288 159.01 175.664 157.794 174.416C156.578 173.168 155.97 171.216 155.97 168.56C155.97 166.192 156.434 163.712 157.362 161.12C158.322 158.496 159.73 156.288 161.586 154.496C163.474 152.672 165.714 151.76 168.306 151.76C169.618 151.76 170.594 151.984 171.234 152.432C171.874 152.88 172.194 153.472 172.194 154.208V154.544L172.722 152H179.634L176.178 168.32C176.05 168.8 175.986 169.312 175.986 169.856C175.986 171.232 176.642 171.92 177.954 171.92C178.85 171.92 179.618 171.504 180.258 170.672C180.93 169.84 181.458 168.752 181.842 167.408H183.858C182.674 170.864 181.202 173.216 179.442 174.464C177.714 175.68 175.97 176.288 174.21 176.288C172.866 176.288 171.778 175.92 170.946 175.184C170.146 174.416 169.666 173.312 169.506 171.872C168.578 173.184 167.538 174.256 166.386 175.088C165.266 175.888 163.922 176.288 162.354 176.288ZM165.474 171.632C166.274 171.632 167.058 171.264 167.826 170.528C168.626 169.76 169.17 168.72 169.458 167.408L171.762 156.56C171.762 156.144 171.602 155.744 171.282 155.36C170.962 154.944 170.466 154.736 169.794 154.736C168.514 154.736 167.362 155.488 166.338 156.992C165.314 158.464 164.514 160.256 163.938 162.368C163.362 164.448 163.074 166.288 163.074 167.888C163.074 169.488 163.298 170.512 163.746 170.96C164.226 171.408 164.802 171.632 165.474 171.632ZM185.123 152H192.035L191.411 154.976C192.499 154.016 193.475 153.28 194.339 152.768C195.235 152.256 196.195 152 197.219 152C198.243 152 199.043 152.352 199.619 153.056C200.227 153.76 200.531 154.608 200.531 155.6C200.531 156.528 200.227 157.344 199.619 158.048C199.011 158.752 198.163 159.104 197.075 159.104C196.371 159.104 195.891 158.944 195.635 158.624C195.411 158.272 195.235 157.776 195.107 157.136C195.011 156.72 194.915 156.416 194.819 156.224C194.723 156.032 194.547 155.936 194.291 155.936C193.619 155.936 193.043 156.08 192.563 156.368C192.115 156.624 191.523 157.088 190.787 157.76L186.947 176H180.035L185.123 152ZM206.674 176.288C204.338 176.288 202.514 175.68 201.202 174.464C199.89 173.216 199.234 171.28 199.234 168.656C199.234 166.448 199.666 164.016 200.53 161.36C201.394 158.704 202.802 156.416 204.754 154.496C206.706 152.544 209.186 151.568 212.194 151.568C215.714 151.568 217.474 153.104 217.474 156.176C217.474 157.968 216.962 159.616 215.938 161.12C214.914 162.624 213.554 163.84 211.858 164.768C210.162 165.664 208.354 166.176 206.434 166.304C206.37 167.008 206.338 167.488 206.338 167.744C206.338 170.4 207.33 171.728 209.314 171.728C210.21 171.728 211.17 171.488 212.194 171.008C213.218 170.528 214.146 169.92 214.978 169.184C214.114 173.92 211.346 176.288 206.674 176.288ZM206.77 164C207.986 163.968 209.122 163.568 210.178 162.8C211.266 162.032 212.13 161.056 212.77 159.872C213.442 158.656 213.778 157.392 213.778 156.08C213.778 154.768 213.378 154.112 212.578 154.112C211.458 154.112 210.338 155.136 209.218 157.184C208.13 159.2 207.314 161.472 206.77 164Z" fill="#171717" fill-opacity="0.91"/>
<path d="M107.316 35.2344C107.316 51.9324 94.2618 65.4688 78.1582 65.4688H49V35.2344C49 18.5364 62.0545 5 78.1582 5C94.2618 5 107.316 18.5364 107.316 35.2344Z" fill="#17CF97"/>
<path d="M107.316 95.7031C107.316 79.0051 120.371 65.4688 136.474 65.4688H165.633V95.7031C165.633 112.401 152.578 125.938 136.474 125.938C120.371 125.938 107.316 112.401 107.316 95.7031Z" fill="#2DCF97"/>
<path d="M49 95.7031C49 112.401 62.0545 125.938 78.1582 125.938H107.316V95.7031C107.316 79.0051 94.2618 65.4688 78.1582 65.4688C62.0545 65.4688 49 79.0051 49 95.7031Z" fill="#17CF97"/>
<path d="M165.633 35.2344C165.633 18.5364 152.578 5 136.474 5H107.316V35.2344C107.316 51.9324 120.371 65.4688 136.474 65.4688C152.578 65.4688 165.633 51.9324 165.633 35.2344Z" fill="#17CF97"/>
</svg>
